<svg width="868" height="137" viewBox="0 0 868 137" fill="none" xmlns="http://www.w3.org/2000/svg">
<path d="M175.599 64.9376C175.598 94.1737 151.897 117.874 122.661 117.874H0V64.9376H175.599ZM122.661 0.00012207C151.897 0.000157444 175.599 23.7013 175.599 52.9376H0V0.00012207H122.661Z" fill="black"/>
<path d="M513.078 36.446C530.632 36.4463 543.361 52.1238 543.361 74.0994C543.361 96.0752 530.766 111.887 513.078 111.887C502.09 111.887 492.442 104.786 488.288 94.8699V136.544H471.672V38.0535H488.288V55.072C491.638 45.424 499.946 36.446 513.078 36.446ZM350.959 36.446C372.265 36.4462 386.2 51.1861 386.2 73.698C386.2 75.3058 386.066 77.1816 385.799 79.0574H332.467C333.807 92.9934 340.908 100.095 351.092 100.095C360.338 100.095 365.028 95.9414 367.574 88.9734H384.592C380.037 104.383 367.843 111.887 350.959 111.887C328.849 111.887 315.448 96.0754 315.448 74.0994C315.448 51.9896 329.251 36.446 350.959 36.446ZM426.993 36.446C448.299 36.446 462.235 51.186 462.235 73.698C462.235 75.3058 462.101 77.1816 461.833 79.0574H408.501C409.841 92.9933 416.943 100.095 427.127 100.095C436.373 100.095 441.063 95.9414 443.609 88.9734H460.627C456.071 104.383 443.877 111.887 426.993 111.887C404.883 111.887 391.483 96.0754 391.483 74.0994C391.483 51.9896 405.285 36.4461 426.993 36.446ZM675.66 36.446C698.038 36.446 712.108 51.8556 712.108 74.0994C712.108 96.4774 698.038 111.887 675.66 111.887C653.416 111.887 639.346 96.4772 639.346 74.0994C639.347 51.8557 653.416 36.4462 675.66 36.446ZM753.658 36.446C776.036 36.4461 790.106 51.8557 790.106 74.0994C790.106 96.4773 776.036 111.887 753.658 111.887C731.414 111.887 717.343 96.4774 717.343 74.0994C717.344 51.8556 731.414 36.446 753.658 36.446ZM258.076 8.44019C288.628 8.44035 309.13 25.5923 309.13 59.3601C309.129 92.9938 288.628 110.28 258.076 110.28H221.895V8.44019H258.076ZM594.234 8.44019C619.828 8.44019 630.012 20.7676 630.012 34.9714C630.012 48.7734 619.293 56.5462 604.419 58.0203C622.91 58.6903 633.497 66.4619 633.497 81.8718C633.497 99.9617 619.694 110.28 594.503 110.28H554.169V8.44019H594.234ZM816.245 68.2039L845.859 38.0535H866.093L834.603 70.0798L867.433 110.28H847.065L816.245 72.3582V110.28H799.495V8.44019H816.245V68.2039ZM507.048 48.238C494.72 48.238 487.752 58.2876 487.752 74.0994C487.752 90.0454 494.72 100.095 507.048 100.095C519.509 100.095 526.343 90.0453 526.343 74.0994C526.343 58.2877 519.509 48.2381 507.048 48.238ZM675.66 48.238C663.332 48.2383 656.364 58.2878 656.364 74.0994C656.364 90.0452 663.332 100.095 675.66 100.095C688.122 100.095 694.957 90.0454 694.957 74.0994C694.957 58.2876 688.122 48.238 675.66 48.238ZM753.658 48.238C741.33 48.238 734.362 58.2876 734.362 74.0994C734.362 90.0454 741.33 100.095 753.658 100.095C766.12 100.095 772.954 90.0453 772.954 74.0994C772.954 58.2877 766.12 48.2382 753.658 48.238ZM239.181 95.406H258.477C279.247 95.406 291.307 82.6759 291.307 59.3601C291.307 36.1781 279.247 23.3142 258.477 23.3142H239.181V95.406ZM571.455 95.406H595.306C608.974 95.406 615.674 90.1799 615.675 80.3982C615.675 70.6162 608.974 65.3894 595.306 65.3894H571.455V95.406ZM350.959 48.238C341.177 48.238 334.342 54.4021 332.6 67.4001H369.049C368.245 55.8763 361.277 48.2382 350.959 48.238ZM426.993 48.238C417.211 48.2381 410.376 54.4022 408.634 67.4001H445.083C444.279 55.8761 437.311 48.238 426.993 48.238ZM571.455 50.5154H594.636C605.758 50.5154 612.19 46.3619 612.19 36.9822C612.19 27.7362 605.758 23.3142 594.636 23.3142H571.455V50.5154Z" fill="black"/>
</svg>
